<svg xmlns="http://www.w3.org/2000/svg" width="64" height="64"><path d="M32 0C14.3 0 0 14.3 0 32s14.3 32 32 32 32-14.3 32-32S49.7 0 32 0z" fill="#333"/><path d="M38.6 50.2H29v-4.8c-6.6 1.4-8.5-3.6-8.5-3.6-1.2-2.4-2.4-3.6-2.4-3.6-2.4-1.4 0-1.2 0-1.2 2.4 0 3.6 2.4 3.6 2.4 2.1 3.6 5.9 3 7.3 2.4 0-1.2.5-3 1.2-3.6-5.3-.6-9.7-3.6-9.7-9.7s1.2-7.3 2.4-8.5c-.2-.6-1.3-2.8 0-6.1 0 0 2.4 0 4.8 3.6 1.2-1.2 4.8-1.2 6.1-1.2 1.2 0 4.9 0 6.1 1.2 2.4-3.6 4.8-3.6 4.8-3.6 1.3 3.3.3 5.5 0 6.1 1.2 1.2 2.4 2.4 2.4 8.5s-4.4 9.1-9.7 9.7c.7.6 1.2 2.7 1.2 3.6v8.4z" fill="#fff"/></svg>